<svg width="40" height="40" viewBox="0 0 40 40" fill="none" xmlns="http://www.w3.org/2000/svg">
<g opacity="0.7">
<path d="M31.4833 11.6865C32.83 10.8599 33.7216 9.73154 34.1583 8.29654C32.9284 8.96172 31.6086 9.44508 30.24 9.73154C29.0683 8.47154 27.585 7.83154 25.8066 7.83154C24.0683 7.83154 22.6 8.44154 21.4016 9.62821C20.8229 10.1917 20.3654 10.8675 20.057 11.614C19.7486 12.3606 19.5959 13.1622 19.6083 13.9699C19.6083 14.4849 19.6733 14.9449 19.8033 15.3349C14.6766 15.1599 10.4333 13.0332 7.08996 8.93988C6.52329 9.94154 6.23996 10.9615 6.23996 12.0165C6.23996 14.1849 7.15496 15.9032 8.98162 17.1649C7.93996 17.0765 7.02162 16.8132 6.23996 16.3815C6.23996 17.9299 6.69496 19.2232 7.60662 20.3615C8.49222 21.4708 9.74026 22.2326 11.1316 22.5132C10.6116 22.6465 10.0633 22.7099 9.49996 22.7099C8.97996 22.7099 8.61162 22.6665 8.39329 22.5715C8.77662 23.8332 9.49996 24.8565 10.545 25.6399C11.578 26.4243 12.8347 26.8582 14.1316 26.8782C11.9116 28.6199 9.37329 29.4815 6.50162 29.4815C5.79829 29.4815 5.29996 29.4715 4.99829 29.4182C7.82662 31.2549 10.975 32.1665 14.4583 32.1665C18.0233 32.1665 21.1733 31.2632 23.915 29.4565C26.6566 27.6599 28.68 25.4432 29.98 22.8332C31.2655 20.3077 31.9349 17.5137 31.9333 14.6799V13.8999C33.1316 13.0164 34.1689 11.9334 35 10.6982C33.8776 11.1846 32.6947 11.5171 31.4833 11.6865Z" fill="#A9A9A9"/>
</g>
</svg>
